Coordinates
nRows=119
nColumns=2
inDegrees=yes
endheader
time	ankle_angle_r	
2.87482	 19.210985	
2.93731	 19.228474	
2.99981	 19.225332	
3.0623	 19.159587	
3.1248	 19.136853	
3.1873	 19.163084	
3.24979	 19.179139	
3.31229	 19.245282	
3.37478	 19.293972	
3.43728	 19.257790	
3.49978	 19.225826	
3.56227	 19.204880	
3.62477	 19.169736	
3.68726	 19.141838	
3.74976	 19.133417	
3.81226	 19.170909	
3.87475	 19.205512	
3.93725	 19.205719	
3.99974	 19.236644	
4.06224	 19.239212	
4.12474	 19.189770	
4.18723	 19.172712	
4.24973	 19.146341	
4.31222	 19.155948	
4.37472	 19.230838	
4.43722	 19.238806	
4.49971	 19.226923	
4.56221	 19.217542	
4.6247	 19.166833	
4.6872	 19.166011	
4.7497	 19.165881	
4.81219	 19.150556	
4.87469	 19.206997	
4.93718	 19.251178	
4.99968	 19.242733	
5.06218	 19.208318	
5.12467	 19.176466	
5.18717	 19.191929	
5.24966	 19.187639	
5.31216	 19.174898	
5.37466	 19.212497	
5.43715	 19.235423	
5.49965	 19.228655	
5.56214	 19.199630	
5.62464	 19.168036	
5.68714	 19.179969	
5.74963	 19.180211	
5.81213	 19.170470	
5.87462	 19.194760	
5.93712	 19.201208	
5.99962	 19.216689	
6.06211	 19.246934	
6.12461	 19.197170	
6.1871	 19.126250	
6.2496	 19.123565	
6.3121	 19.149986	
6.37459	 19.194740	
6.43709	 19.236527	
6.49958	 19.233840	
6.56208	 19.238767	
6.62458	 19.250784	
6.68707	 19.205411	
6.74957	 19.154945	
6.81206	 19.168694	
6.87456	 19.213133	
6.93706	 19.230276	
6.99955	 19.236960	
7.06205	 19.263735	
7.12454	 19.240029	
7.18704	 19.171307	
7.24954	 19.151695	
7.31203	 19.156741	
7.37453	 19.188257	
7.43702	 19.245805	
7.49952	 19.252686	
7.56202	 19.245115	
7.62451	 19.216972	
7.68701	 19.147123	
7.7495	 19.134160	
7.812	 19.161682	
7.8745	 19.189790	
7.93699	 19.219460	
7.99949	 19.216399	
8.06198	 19.236596	
8.12448	 19.246362	
8.18698	 19.179384	
8.24947	 19.146989	
8.31197	 19.156515	
8.37446	 19.163748	
8.43696	 19.202596	
8.49946	 19.227812	
8.56195	 19.216614	
8.62445	 19.187812	
8.68694	 19.162113	
8.74944	 19.166507	
8.81194	 19.155348	
8.87443	 19.154429	
8.93693	 19.225077	
8.99942	 19.270902	
9.06192	 19.259889	
9.12442	 19.246462	
9.18691	 19.206265	
9.24941	 19.174188	
9.3119	 19.166214	
9.3744	 19.157226	
9.4369	 19.189531	
9.49939	 19.210564	
9.56189	 19.208829	
9.62438	 19.238997	
9.68688	 19.207601	
9.74938	 19.157648	
9.81187	 19.184306	
9.87437	 19.173886	
9.93686	 19.155660	
9.99936	 19.194725	
10.0619	 19.200930	
10.1244	 19.212627	
10.1868	 19.223465	
10.2493	 19.119595	
